<?xml version="1.0" encoding="UTF-8" standalone="no"?>
<svg
   xmlns:dc="http://purl.org/dc/elements/1.1/"
   xmlns:cc="http://creativecommons.org/ns#"
   xmlns:rdf="http://www.w3.org/1999/02/22-rdf-syntax-ns#"
   xmlns:svg="http://www.w3.org/2000/svg"
   xmlns="http://www.w3.org/2000/svg"
   xmlns:sodipodi="http://sodipodi.sourceforge.net/DTD/sodipodi-0.dtd"
   xmlns:inkscape="http://www.inkscape.org/namespaces/inkscape"
   sodipodi:docname="Icono para NavBar.svg"
   inkscape:version="1.0 (4035a4fb49, 2020-05-01)"
   id="svg6780"
   version="1.1"
   viewBox="0 0 79.374984 21.166666"
   height="80"
   width="300">
  <defs
     id="defs6774" />
  <sodipodi:namedview
     inkscape:window-maximized="1"
     inkscape:window-y="-8"
     inkscape:window-x="-8"
     inkscape:window-height="715"
     inkscape:window-width="1360"
     height="40px"
     units="px"
     showgrid="false"
     inkscape:document-rotation="0"
     inkscape:current-layer="layer1"
     inkscape:document-units="mm"
     inkscape:cy="36.386956"
     inkscape:cx="164.48335"
     inkscape:zoom="1.4"
     inkscape:pageshadow="2"
     inkscape:pageopacity="0.0"
     borderopacity="1.0"
     bordercolor="#666666"
     pagecolor="#ffffff"
     id="base" />
  <metadata
     id="metadata6777">
    <rdf:RDF>
      <cc:Work
         rdf:about="">
        <dc:format>image/svg+xml</dc:format>
        <dc:type
           rdf:resource="http://purl.org/dc/dcmitype/StillImage" />
        <dc:title></dc:title>
      </cc:Work>
    </rdf:RDF>
  </metadata>
  <g
     id="layer1"
     inkscape:groupmode="layer"
     inkscape:label="Capa 1">
    <g
       transform="translate(-61.988096,-143.63095)"
       id="g7489">
      <g
         transform="matrix(0.5951986,0,0,0.5951986,-502.09423,1.1598986)"
         id="g6751">
        <path
           id="path3168-8"
           d="m 973.60158,250.04101 v 11.01953 h 4.49214 v 2.98047 h -8.13667 v -14 z m 0,0"
           style="fill:#fddc0f;fill-opacity:1;fill-rule:nonzero;stroke:#211e1e;stroke-width:0.5;stroke-linecap:butt;stroke-linejoin:miter;stroke-miterlimit:10;stroke-opacity:1" />
        <path
           id="path3170-9"
           d="m 982.52342,260.13866 c 0,0.67969 0.1016,1.13672 0.2969,1.36328 0.1953,0.23047 0.4648,0.34375 0.8047,0.34375 0.3398,0 0.6055,-0.11328 0.8008,-0.34375 0.1992,-0.22656 0.2968,-0.68359 0.2968,-1.36328 v -10.09765 h 3.6485 v 9.17578 c 0,0.98047 -0.1055,1.79687 -0.3164,2.45312 -0.2071,0.65235 -0.5118,1.17578 -0.9102,1.56641 -0.3984,0.39453 -0.8906,0.66016 -1.4805,0.80469 -0.5898,0.14454 -1.2695,0.21484 -2.039,0.21484 -0.7617,0 -1.4375,-0.0703 -2.0313,-0.21484 -0.5937,-0.14453 -1.0898,-0.41016 -1.4883,-0.80469 -0.3984,-0.39063 -0.7031,-0.91406 -0.914,-1.56641 -0.207,-0.65625 -0.3125,-1.47265 -0.3125,-2.45312 v -9.17578 h 3.6445 z m 0,0"
           style="fill:#fddc0f;fill-opacity:1;fill-rule:nonzero;stroke:#211e1e;stroke-width:0.5;stroke-linecap:butt;stroke-linejoin:miter;stroke-miterlimit:10;stroke-opacity:1" />
        <path
           id="path3172-2"
           d="m 993.85942,253.02148 h -4.0977 v -2.98047 h 8.3516 v 2.625 l -4.4688,8.39453 h 4.4688 v 2.98047 h -8.6446 v -2.625 z m 0,0"
           style="fill:#fddc0f;fill-opacity:1;fill-rule:nonzero;stroke:#211e1e;stroke-width:0.5;stroke-linecap:butt;stroke-linejoin:miter;stroke-miterlimit:10;stroke-opacity:1" />
      </g>
      <g
         transform="matrix(0.5951986,0,0,0.5951986,-482.99949,-12.764491)"
         id="g6746">
        <path
           id="path3174-7"
           d="m 974.52345,276.43554 -1,5.9414 h 2.03907 l -1,-5.9414 z m 2.31641,-2.86328 3.41406,14.00001 h -3.88281 l -0.375,-2.44923 h -2.90234 l -0.375,2.44923 h -3.82033 l 3.35158,-14.00001 z m 0,0"
           style="fill:#211e1e;fill-opacity:1;fill-rule:nonzero;stroke:#211e1e;stroke-width:0.25;stroke-linecap:butt;stroke-linejoin:miter;stroke-miterlimit:10;stroke-opacity:1" />
        <path
           id="path3176-5"
           d="m 985.23052,284.94335 c 0.3554,0 0.6367,-0.0469 0.8437,-0.14453 0.2109,-0.0977 0.3672,-0.30469 0.4805,-0.61719 0.1133,-0.3164 0.1836,-0.75781 0.2148,-1.33593 0.035,-0.57422 0.051,-1.33204 0.051,-2.27344 0,-0.94141 -0.016,-1.69922 -0.051,-2.27344 -0.031,-0.57812 -0.1015,-1.01953 -0.2148,-1.33594 -0.1133,-0.3125 -0.2696,-0.51953 -0.4805,-0.61718 -0.207,-0.0977 -0.4883,-0.14454 -0.8437,-0.14454 h -0.7266 v 8.74219 z m 0.9218,-11.37109 c 1.0586,0 1.8828,0.1914 2.4727,0.57812 0.5859,0.38672 1.0273,0.90235 1.3242,1.55078 0.293,0.64454 0.4727,1.39063 0.5391,2.23438 0.062,0.84375 0.098,1.72266 0.098,2.63672 0,0.91406 -0.035,1.79297 -0.098,2.63672 -0.066,0.84375 -0.2461,1.58984 -0.5391,2.23437 -0.2969,0.64844 -0.7383,1.16407 -1.3242,1.55078 -0.5899,0.38672 -1.4141,0.57814 -2.4727,0.57814 h -5.2929 v -14.00001 z m 0,0"
           style="fill:#211e1e;fill-opacity:1;fill-rule:nonzero;stroke:#211e1e;stroke-width:0.25;stroke-linecap:butt;stroke-linejoin:miter;stroke-miterlimit:10;stroke-opacity:1" />
        <path
           id="path3178-1"
           d="m 1000.4062,273.57226 v 2.98047 h -4.64448 v 2.39062 h 4.35158 v 2.86328 h -4.35158 v 2.78516 h 4.82418 v 2.98048 h -8.47258 v -14.00001 z m 0,0"
           style="fill:#211e1e;fill-opacity:1;fill-rule:nonzero;stroke:#211e1e;stroke-width:0.25;stroke-linecap:butt;stroke-linejoin:miter;stroke-miterlimit:10;stroke-opacity:1" />
        <path
           id="path3180-1"
           d="m 1005.9961,273.57226 2.3554,8.6289 h 0.039 v -8.6289 h 3.4141 v 14.00001 h -4.0039 l -2.4297,-8.64845 h -0.039 v 8.64845 h -3.4141 v -14.00001 z m 0,0"
           style="fill:#211e1e;fill-opacity:1;fill-rule:nonzero;stroke:#211e1e;stroke-width:0.25;stroke-linecap:butt;stroke-linejoin:miter;stroke-miterlimit:10;stroke-opacity:1" />
        <path
           id="path3182-4"
           d="m 1012.664,276.66991 v -3.09765 h 9.1016 v 3.09765 h -2.7461 v 10.90236 h -3.6484 v -10.90236 z m 0,0"
           style="fill:#211e1e;fill-opacity:1;fill-rule:nonzero;stroke:#211e1e;stroke-width:0.25;stroke-linecap:butt;stroke-linejoin:miter;stroke-miterlimit:10;stroke-opacity:1" />
        <path
           id="path3184-5"
           d="m 1026.9609,279.49413 c 0.5235,0 0.9063,-0.15234 1.1563,-0.46093 0.25,-0.3086 0.3711,-0.71094 0.3711,-1.20704 0,-0.58984 -0.1211,-1.00781 -0.3633,-1.2539 -0.2383,-0.25 -0.6367,-0.375 -1.1836,-0.375 h -0.707 v 3.29687 z m 1.332,-5.92187 c 0.6915,0 1.2852,0.0898 1.7735,0.27344 0.4922,0.18359 0.8906,0.4414 1.1992,0.77734 0.3047,0.33203 0.5273,0.72656 0.6641,1.18359 0.1367,0.45703 0.207,0.95703 0.207,1.49219 0,0.94141 -0.1914,1.69922 -0.5703,2.27344 -0.3789,0.57422 -0.9844,0.9297 -1.8203,1.05859 v 0.0391 c 0.875,0.0781 1.4765,0.38672 1.8047,0.92188 0.3242,0.53516 0.4882,1.27344 0.4882,2.21484 v 1.76563 c 0,0.19531 0.01,0.38281 0.019,0.55859 0.012,0.17578 0.031,0.33985 0.059,0.48047 0.027,0.14453 0.059,0.25391 0.098,0.33594 0.055,0.0781 0.1055,0.15234 0.1563,0.22266 0.051,0.0742 0.1406,0.14062 0.2539,0.20703 v 0.19531 h -3.8828 c -0.09,-0.18359 -0.1563,-0.39844 -0.2031,-0.64453 -0.047,-0.25 -0.078,-0.5 -0.098,-0.7461 -0.02,-0.25 -0.035,-0.48828 -0.039,-0.71484 -0.01,-0.23047 -0.012,-0.41797 -0.012,-0.5625 v -0.9375 c 0,-0.39453 -0.02,-0.72266 -0.059,-0.98438 -0.039,-0.25781 -0.1055,-0.46484 -0.2071,-0.61718 -0.098,-0.14844 -0.2187,-0.25391 -0.3711,-0.3125 -0.1484,-0.0586 -0.3359,-0.0898 -0.5586,-0.0898 h -0.9609 v 5.60938 h -3.6484 v -14 z m 0,0"
           style="fill:#211e1e;fill-opacity:1;fill-rule:nonzero;stroke:#211e1e;stroke-width:0.25;stroke-linecap:butt;stroke-linejoin:miter;stroke-miterlimit:10;stroke-opacity:1" />
        <path
           id="path3186-7"
           d="m 1037.2344,282.91601 c 0.027,0.62109 0.082,1.11328 0.1679,1.48047 0.082,0.36719 0.2071,0.62109 0.3711,0.76562 0.1641,0.14453 0.3828,0.21485 0.6563,0.21485 0.2773,0 0.4922,-0.0703 0.6601,-0.21485 0.1602,-0.14453 0.2852,-0.39843 0.3711,-0.76562 0.086,-0.36719 0.1406,-0.85938 0.168,-1.48047 0.023,-0.62109 0.039,-1.40234 0.039,-2.34375 0,-0.94141 -0.016,-1.72266 -0.039,-2.34375 -0.027,-0.62109 -0.082,-1.11328 -0.168,-1.48047 -0.086,-0.36719 -0.2109,-0.62109 -0.3711,-0.76562 -0.1679,-0.14454 -0.3828,-0.21485 -0.6601,-0.21485 -0.2735,0 -0.4922,0.0703 -0.6563,0.21485 -0.164,0.14453 -0.289,0.39843 -0.3711,0.76562 -0.086,0.36719 -0.1406,0.85938 -0.1679,1.48047 -0.023,0.62109 -0.039,1.40234 -0.039,2.34375 0,0.94141 0.016,1.72266 0.039,2.34375 m -3.5469,-5.6875 c 0.168,-0.92188 0.4492,-1.67188 0.8398,-2.25391 0.3946,-0.58203 0.9102,-1.00781 1.5508,-1.27734 0.6406,-0.26563 1.4258,-0.39844 2.3516,-0.39844 0.9297,0 1.7148,0.13281 2.3554,0.39844 0.6407,0.26953 1.1563,0.69531 1.5508,1.27734 0.3906,0.58203 0.6719,1.33203 0.8399,2.25391 0.1679,0.92187 0.2578,2.03516 0.2578,3.34375 0,1.30859 -0.09,2.42187 -0.2578,3.34375 -0.168,0.92187 -0.4493,1.67187 -0.8399,2.25391 -0.3945,0.58203 -0.9101,0.99609 -1.5508,1.24609 -0.6406,0.24609 -1.4257,0.37109 -2.3554,0.37109 -0.9258,0 -1.711,-0.125 -2.3516,-0.37109 -0.6406,-0.25 -1.1562,-0.66406 -1.5508,-1.24609 -0.3906,-0.58204 -0.6718,-1.33204 -0.8398,-2.25391 -0.1719,-0.92188 -0.2578,-2.03516 -0.2578,-3.34375 0,-1.30859 0.086,-2.42188 0.2578,-3.34375"
           style="fill:#211e1e;fill-opacity:1;fill-rule:nonzero;stroke:none;stroke-width:0.999997" />
        <path
           id="path3188-1"
           d="m 1037.2344,282.91601 c 0.027,0.62109 0.082,1.11328 0.1679,1.48047 0.082,0.36719 0.2071,0.62109 0.3711,0.76562 0.1641,0.14453 0.3828,0.21485 0.6563,0.21485 0.2773,0 0.4922,-0.0703 0.6601,-0.21485 0.1602,-0.14453 0.2852,-0.39843 0.3711,-0.76562 0.086,-0.36719 0.1406,-0.85938 0.168,-1.48047 0.023,-0.6211 0.039,-1.40235 0.039,-2.34375 0,-0.94141 -0.016,-1.72266 -0.039,-2.34375 -0.027,-0.6211 -0.082,-1.11328 -0.168,-1.48047 -0.086,-0.36719 -0.2109,-0.62109 -0.3711,-0.76563 -0.1679,-0.14453 -0.3828,-0.21484 -0.6601,-0.21484 -0.2735,0 -0.4922,0.0703 -0.6563,0.21484 -0.164,0.14454 -0.289,0.39844 -0.3711,0.76563 -0.086,0.36719 -0.1406,0.85937 -0.1679,1.48047 -0.023,0.62109 -0.039,1.40234 -0.039,2.34375 0,0.9414 0.016,1.72265 0.039,2.34375 z m -3.5469,-5.6875 c 0.1679,-0.92188 0.4492,-1.67188 0.8398,-2.25391 0.3946,-0.58203 0.9102,-1.00781 1.5508,-1.27734 0.6406,-0.26563 1.4258,-0.39844 2.3516,-0.39844 0.9297,0 1.7148,0.13281 2.3554,0.39844 0.6407,0.26953 1.1563,0.69531 1.5508,1.27734 0.3906,0.58203 0.6719,1.33203 0.8399,2.25391 0.1679,0.92187 0.2578,2.03515 0.2578,3.34375 0,1.30859 -0.09,2.42187 -0.2578,3.34375 -0.168,0.92187 -0.4493,1.67187 -0.8399,2.25391 -0.3945,0.58203 -0.9101,0.99609 -1.5508,1.24609 -0.6406,0.24609 -1.4257,0.37109 -2.3554,0.37109 -0.9258,0 -1.711,-0.125 -2.3516,-0.37109 -0.6406,-0.25 -1.1562,-0.66406 -1.5508,-1.24609 -0.3906,-0.58204 -0.6719,-1.33204 -0.8398,-2.25391 -0.1719,-0.92188 -0.2578,-2.03516 -0.2578,-3.34375 0,-1.3086 0.086,-2.42188 0.2578,-3.34375 z m 0,0"
           style="fill:none;stroke:#211e1e;stroke-width:0.25;stroke-linecap:butt;stroke-linejoin:miter;stroke-miterlimit:10;stroke-opacity:1" />
      </g>
      <g
         transform="matrix(0.3527778,0,0,0.3527778,-278.45932,82.142751)"
         id="g7387">
        <path
           id="path3152-6"
           d="m 968.08577,205.57512 7.75,13.8711 c 0,0 2.29297,4.64062 6.8164,5.35937 4.52344,0.71875 7.03125,-0.55468 9.16016,-4.49609 2.12891,-3.94531 2.91406,-15.92969 2.91406,-15.92969 0,0 0.26953,-2.08594 -0.98437,-3.66797 l -4.36719,-7.78515 c 0,0 -0.39062,-1.18751 -1.57422,-1.50392 -1.17969,-0.31641 -7.0664,-1.43358 -7.0664,-1.43358 l -7.83204,1.08593 c 0,0 0.0312,2.27735 2.94532,2.32422 2.91797,0.0469 3.39843,-0.15234 3.39843,-0.15234 0,0 1.17579,1.10937 3.53516,1.3164 2.35938,0.21094 3.53125,2.08204 3.53125,2.08204 0,0 0.80859,4.01953 2.41797,6.47656 l -2.69141,6.71094 c 0,0 -3.89062,4.70312 -8.97265,-0.0703 -5.08203,-4.77343 -5.64453,-4.95703 -5.64453,-4.95703 0,0 -1.96875,-1.08984 -2.86329,-0.0352 z m 0,0"
           style="fill:none;stroke:#211e1e;stroke-width:0.5;stroke-linecap:butt;stroke-linejoin:miter;stroke-miterlimit:10;stroke-opacity:1" />
        <path
           id="path3154-0"
           d="m 986.93342,199.7509 c 0,0 -3.03125,-0.44531 -3.99609,-0.66015 -0.31641,-0.0703 -0.48437,-0.14844 -1.22266,0.63672 -1.03515,1.09765 -1.72656,1.67187 -1.72656,1.67187 0,0 -1.125,1.04297 -2.83203,0.82422 -0.95703,-0.125 1.82422,-4.56641 1.82422,-4.56641 0,0 1.31641,-2.61718 3.28125,-2.30859 0.70703,0.11328 2.82422,0.51172 2.82422,0.51172 0,0 0.51562,0.24219 0.95703,0.85547 0,0 0.34375,1.60156 0.89062,3.03515 z m 0,0"
           style="fill:none;stroke:#211e1e;stroke-width:0.5;stroke-linecap:butt;stroke-linejoin:miter;stroke-miterlimit:10;stroke-opacity:1" />
        <path
           id="path3156-7"
           d="m 994.17561,200.99309 c 0,0 -5.07812,-11.39062 -6.0039,-12.53516 -0.92969,-1.14454 -1.33204,-1.41797 -1.33204,-1.41797 0,0 -6.8789,-2.98828 -9.47265,-3.44141 0,0 -2.08594,2.74609 4.16406,4.96485 1.07813,0.38281 2.52344,1.31249 3.41406,2.00391 0,0 2.54688,0.51562 3.37891,0.76171 0.53906,0.16017 1.01172,0.87891 1.39844,1.62891 0.92968,1.8086 4.42187,7.89844 4.45312,8.03516 z m 0,0"
           style="fill:none;stroke:#211e1e;stroke-width:0.5;stroke-linecap:round;stroke-linejoin:round;stroke-miterlimit:10;stroke-opacity:1" />
        <path
           id="path3158-1"
           d="m 990.31624,192.15324 c -0.32422,-0.89452 -1.85547,-3.64063 -1.85547,-3.64063 0,-0.47265 0.23827,-0.80468 0.23827,-0.80468 0,0 5.78125,2.35547 6.83204,3.48438 1.05468,1.125 0.58203,3.02734 0.58203,3.02734 l -1.46875,7.88282 c -0.0117,-0.15625 -0.25782,-0.69141 -0.3086,-0.88282 -0.043,-0.16406 0.0859,-0.15625 0.0273,-0.32812 -0.26953,-0.75391 -0.60156,-1.37109 -0.60156,-1.37109 l -1.83985,-4.01954 c 0.21094,-1.51171 0.19141,-2.41796 0.19141,-2.41796 -0.64845,-0.26563 -1.34375,-0.64455 -1.79687,-0.9297 z m 0,0"
           style="fill:none;stroke:#211e1e;stroke-width:0.5;stroke-linecap:round;stroke-linejoin:round;stroke-miterlimit:10;stroke-opacity:1" />
        <path
           id="path3160-4"
           d="m 974.59749,198.70793 0.64453,0.66407 -3.48828,4.67969"
           style="fill:#fddc0f;fill-opacity:1;fill-rule:nonzero;stroke:#211e1e;stroke-width:0.5;stroke-linecap:round;stroke-linejoin:round;stroke-miterlimit:10;stroke-opacity:1" />
        <path
           id="path3162-9"
           d="m 972.58577,194.15715 h 2.45312 l -1.51172,4.55079 h 1.07032 l -2.84375,5.34375 0.83202,-4.50391 -1.07031,-0.13281 z m 0,0"
           style="fill:#fddc0f;fill-opacity:1;fill-rule:nonzero;stroke:#211e1e;stroke-width:0.5;stroke-linecap:round;stroke-linejoin:round;stroke-miterlimit:10;stroke-opacity:1" />
        <path
           id="path3164-9"
           d="m 975.03889,194.15716 -1.51171,4.55078 0.60937,-0.10938 1.66016,-3.60156 z m 0,0"
           style="fill:#fddc0f;fill-opacity:1;fill-rule:nonzero;stroke:none;stroke-width:0.999997" />
        <path
           id="path3166-5"
           d="m 975.03889,194.15715 -1.51172,4.55079 0.60937,-0.10938 1.66017,-3.60156 -0.75782,-0.83984"
           style="fill:none;stroke:#211e1e;stroke-width:0.5;stroke-linecap:round;stroke-linejoin:round;stroke-miterlimit:10;stroke-opacity:1" />
      </g>
    </g>
  </g>
</svg>
